# xmcd
#
# Track frame offsets: 
#        150
#        31514
#        57424
#        77144
#        98681
#        120807
#        147853
#        173763
#        193366
#        214730
#
# Disc length: 3278 seconds
#
# Revision: 0
# Processed by: cddbd v1.5.2PL0 Copyright (c) Steve Scherf et al.
# Submitted via: ExactAudioCopy v1.0b1
#
DISCID=7e0ccc0a
DTITLE=Various Artist - Tinh Khuc Pham Duy [CD1)
DYEAR=2001
DGENRE=Blues
TTITLE0=Elvis Phuong - Tha Nhu Giot Mua
TTITLE1=Khanh Ha - Bao Gio Biet Tuong Tu
TTITLE2=Julie - Bai Tho Vu Quy
TTITLE3=Thai Chau - Con Chut Gi De Nho
TTITLE4=Y Lan - Kiep Nao Co Yeu Nhau
TTITLE5=Duy Quang - Chuyen Tinh
TTITLE6=Khanh Ha - Co Hong
TTITLE7=Elvis Phuong - Tinh Ho
TTITLE8=Khanh Ha - Can Nha Xinh
TTITLE9=Tuan Ngoc - Tien Em
EXTD=
EXTT0=
EXTT1=
EXTT2=
EXTT3=
EXTT4=
EXTT5=
EXTT6=
EXTT7=
EXTT8=
EXTT9=
PLAYORDER=
